<?xml version="1.0" encoding="UTF-8"?>
<svg width="50px" height="26px" viewBox="0 0 50 26" version="1.1" xmlns="http://www.w3.org/2000/svg" xmlns:xlink="http://www.w3.org/1999/xlink">
    <!-- Generator: Sketch 53.2 (72643) - https://sketchapp.com -->
    <title>php-logo</title>
    <desc>Created with Sketch.</desc>
    <g id="The-Pantheon-Platform" stroke="none" stroke-width="1" fill="none" fill-rule="evenodd">
        <g id="Elements" transform="translate(-762.000000, -146.000000)" fill="#000000" fill-rule="nonzero">
            <g id="php-logo" transform="translate(762.000000, 146.000000)">
                <path d="M3.94739583,5.27239583 L11.3453125,5.27239583 C13.5166667,5.290625 15.0901042,5.91666667 16.065625,7.14947917 C17.0411458,8.38229167 17.3630208,10.0661458 17.0317708,12.2010417 C16.903125,13.1765625 16.6177083,14.1333333 16.1760417,15.071875 C15.7526042,16.0104167 15.1640625,16.8567708 14.409375,17.6114583 C13.4890625,18.5682292 12.5046875,19.1755208 11.4557292,19.4333333 C10.4067708,19.6911458 9.32083333,19.8197917 8.1984375,19.8197917 L4.8859375,19.8197917 L3.83697917,25.0645833 L0,25.0645833 L3.94739583,5.27239583 L3.94739583,5.27239583 M7.17708333,8.41927083 L5.52083333,16.7005208 C5.63125,16.71875 5.74166667,16.728125 5.85208333,16.728125 C5.98072917,16.728125 6.10989583,16.728125 6.23854167,16.728125 C8.00520833,16.7463542 9.47760417,16.571875 10.6552083,16.2036458 C11.8328125,15.8171875 12.6244792,14.4739583 13.0291667,12.1734375 C13.3604167,10.2411458 13.0291667,9.12760417 12.0354167,8.83333333 C11.0598958,8.5390625 9.83645833,8.40104167 8.3640625,8.41927083 C8.14322917,8.4375 7.93177083,8.446875 7.72916667,8.446875 C7.5453125,8.446875 7.35208333,8.446875 7.14947917,8.446875 L7.17708333,8.41927083" id="Shape"></path>
                <path d="M21.4026042,0 L25.2119792,0 L24.1354167,5.27239583 L27.5583333,5.27239583 C29.4354167,5.309375 30.8338542,5.69583333 31.7541667,6.43177083 C32.6927083,7.16770833 32.96875,8.56666667 32.5822917,10.6276042 L30.7328125,19.8197917 L26.8682292,19.8197917 L28.6348958,11.0416667 C28.81875,10.1213542 28.7635417,9.46822917 28.4692708,9.08177083 C28.175,8.6953125 27.5401042,8.50208333 26.5645833,8.50208333 L23.5005208,8.47447917 L21.2369792,19.8197917 L17.4276042,19.8197917 L21.4026042,0 L21.4026042,0" id="Path"></path>
                <path d="M36.6729167,5.27239583 L44.0708333,5.27239583 C46.2421875,5.290625 47.815625,5.91666667 48.7911458,7.14947917 C49.7666667,8.38229167 50.0885417,10.0661458 49.7572917,12.2010417 C49.6286458,13.1765625 49.3432292,14.1333333 48.9015625,15.071875 C48.478125,16.0104167 47.8895833,16.8567708 47.1348958,17.6114583 C46.2145833,18.5682292 45.2302083,19.1755208 44.18125,19.4333333 C43.1322917,19.6911458 42.0463542,19.8197917 40.9239583,19.8197917 L37.6114583,19.8197917 L36.5625,25.0645833 L32.7255208,25.0645833 L36.6729167,5.27239583 L36.6729167,5.27239583 M39.9026042,8.41927083 L38.2463542,16.7005208 C38.3567708,16.71875 38.4671875,16.728125 38.5776042,16.728125 C38.70625,16.728125 38.8354167,16.728125 38.9640625,16.728125 C40.7307292,16.7463542 42.203125,16.571875 43.3807292,16.2036458 C44.5583333,15.8171875 45.35,14.4739583 45.7546875,12.1734375 C46.0859375,10.2411458 45.7546875,9.12760417 44.7609375,8.83333333 C43.7854167,8.5390625 42.5619792,8.40104167 41.0895833,8.41927083 C40.86875,8.4375 40.6572917,8.446875 40.4546875,8.446875 C40.2708333,8.446875 40.0776042,8.446875 39.875,8.446875 L39.9026042,8.41927083" id="Shape"></path>
            </g>
        </g>
    </g>
</svg>