<?xml version="1.0" encoding="UTF-8"?>
<svg width="42px" height="48px" viewBox="0 0 42 48" version="1.1" xmlns="http://www.w3.org/2000/svg" xmlns:xlink="http://www.w3.org/1999/xlink">
    <!-- Generator: Sketch 53.2 (72643) - https://sketchapp.com -->
    <title>Database Failover</title>
    <desc>Created with Sketch.</desc>
    <g id="The-Pantheon-Platform" stroke="none" stroke-width="1" fill="none" fill-rule="evenodd">
        <g id="Elements" transform="translate(-205.000000, -134.000000)">
            <g id="Database-Failover" transform="translate(201.000000, 134.000000)">
                <polygon id="Path" points="0 50 0 0 50 0 50 50"></polygon>
                <g id="original-icon" transform="translate(3.906250, 0.000000)" fill-rule="nonzero">
                    <path d="M21.0957031,0 C8.53370312,0 0.09375,4.65304687 0.09375,8.99804688 C0.09375,13.3450469 8.53370312,18 21.0957031,18 C33.6567031,18 42.09375,13.3450469 42.09375,8.99804688 C42.09375,4.65304688 33.6567031,0 21.0957031,0 Z" id="Path" fill="#1494C7"></path>
                    <path d="M0.09375,13.609375 L0.09375,19.1503906 C0.09375,23.4243906 8.53370312,28 21.0957031,28 C33.6567031,28 42.09375,23.4243906 42.09375,19.1503906 L42.09375,13.609375 C38.42175,17.363375 30.5067031,20 21.0957031,20 C11.6827031,20 3.76675,17.362375 0.09375,13.609375 L0.09375,13.609375 Z" id="Path" fill="#283139"></path>
                    <path d="M0.09375,23.9101562 L0.09375,29.1953125 C0.09375,33.4683125 8.53370312,38 21.0957031,38 C33.6567031,38 42.09375,33.4673125 42.09375,29.1953125 L42.09375,23.9101562 C38.42175,27.6621563 30.5067031,30 21.0957031,30 C11.6827031,30 3.76675,27.6621563 0.09375,23.9101562 L0.09375,23.9101562 Z" id="Path" fill="#283139"></path>
                    <path d="M0.09375,33.9550781 L0.09375,39.1503906 C0.09375,43.4233906 8.53370312,48 21.0957031,48 C33.6567031,48 42.09375,43.4233906 42.09375,39.1503906 L42.09375,33.9550781 C38.42175,37.7080781 30.5067031,40 21.0957031,40 C11.6827031,40 3.76675,37.7080781 0.09375,33.9550781 Z" id="Path" fill="#283139"></path>
                </g>
                <path d="M25,50 C11.1928802,50 0,38.8071198 0,25 L0,25 C0,11.1928802 11.1928802,0 25,0 L25,0 C38.8071198,0 50,11.1928802 50,25 L50,25 C50,38.8071198 38.8071198,50 25,50 Z" id="Path"></path>
                <path d="M25,49 C11.7451667,49 1,38.2548333 1,25 L1,25 C1,11.7451667 11.7451667,1 25,1 L25,1 C38.2548333,1 49,11.7451667 49,25 L49,25 C49,38.2548333 38.2548333,49 25,49 Z" id="Path"></path>
                <polygon id="Path" points="0 50 0 0 50 0 50 50"></polygon>
                <polygon id="Path" points="1 49 1 1 49 1 49 49"></polygon>
            </g>
        </g>
    </g>
</svg>