<?xml version="1.0" encoding="UTF-8"?>
<svg width="52px" height="42px" viewBox="0 0 52 42" version="1.1" xmlns="http://www.w3.org/2000/svg" xmlns:xlink="http://www.w3.org/1999/xlink">
    <!-- Generator: Sketch 53.2 (72643) - https://sketchapp.com -->
    <title>Group</title>
    <desc>Created with Sketch.</desc>
    <g id="Symbols" stroke="none" stroke-width="1" fill="none" fill-rule="evenodd">
        <g id="Icon-File-System" transform="translate(-14.000000, -19.000000)">
            <g id="Group" transform="translate(15.000000, 20.000000)">
                <path d="M45,5 L25,5 L20,0 L5,0 C2.25,0 0,2.25 0,5 L0,35 C0,37.75 2.25,40 5,40 L45,40 C47.75,40 50,37.75 50,35 L50,10 C50,7.25 47.75,5 45,5 Z" id="Path" stroke="#283139" stroke-width="2" fill="#283139" fill-rule="nonzero"></path>
                <path d="M23.1415546,33.708457 C23.513651,33.5420197 23.8030593,33.2514807 23.9684355,32.8783457 L24.2578438,32.1308305 C25.0433806,32.2138416 25.7875734,32.2138416 26.5731102,32.1308305 L26.8625186,32.8783457 C27.0278947,33.2514807 27.317303,33.5420197 27.6893994,33.708457 C27.8961196,33.7910531 28.0614958,33.8329737 28.268216,33.8329737 C28.4749363,33.8329737 28.6816565,33.7910531 28.8470327,33.708457 L30.1700421,33.1684696 C30.5421385,33.0028624 30.8315468,32.7119084 30.9969229,32.3383583 C31.1622991,31.9652233 31.1622991,31.5501677 30.9969229,31.135112 L30.7075146,30.3880119 C31.3276753,29.9310356 31.8651479,29.3503727 32.3199324,28.7688798 L33.0641251,29.0598338 C33.4362215,29.225441 33.849662,29.225441 34.2631024,29.0598338 C34.6351988,28.8933965 34.9246071,28.6028575 35.0899833,28.2297225 L35.6274559,26.9011294 C35.792832,26.5275793 35.792832,26.1125237 35.6274559,25.697468 C35.4620797,25.324333 35.1726714,25.033379 34.800575,24.8673567 L34.0563822,24.5768178 C34.1390703,23.7882121 34.1390703,23.041527 34.0563822,22.2525062 L34.800575,21.9619672 C35.1726714,21.79636 35.4620797,21.505406 35.6274559,21.131856 C35.792832,20.7587209 35.792832,20.3436653 35.6274559,19.9286096 L35.0899833,18.6000165 C34.9246071,18.2264665 34.6351988,17.9359275 34.2631024,17.7699052 C33.891006,17.603883 33.4775656,17.603883 33.0641251,17.7699052 L32.3199324,18.0608593 C31.8651479,17.4382758 31.2863313,16.8982884 30.7075146,16.4417272 L30.9969229,15.694627 C31.1622991,15.321077 31.1622991,14.9060213 30.9969229,14.4909657 C30.8315468,14.1178306 30.5421385,13.8268766 30.1700421,13.6608544 L28.8470327,13.121282 C28.0614958,12.7892375 27.1519269,13.1627876 26.8211745,13.9513933 L26.5317662,14.6984935 C25.7462294,14.6154824 25.0020366,14.6154824 24.2164997,14.6984935 L23.9270914,13.9513933 C23.5963391,13.1627876 22.6867701,12.7892375 21.9012333,13.121282 L20.5782239,13.6608544 C20.2061275,13.8268766 19.9167192,14.1178306 19.751343,14.4909657 C19.5859668,14.8645157 19.5859668,15.2795714 19.751343,15.694627 L20.0407513,16.4417272 C19.4205906,16.8982884 18.8831181,17.4793663 18.4283336,18.0608593 L17.6841408,17.7699052 C17.3120444,17.603883 16.898604,17.603883 16.4851635,17.7699052 C16.1130671,17.9359275 15.8236588,18.2264665 15.6582826,18.6000165 L15.1208101,19.9286096 C14.7900577,20.7168003 15.1621541,21.6299227 15.9476909,21.9619672 L16.6918837,22.2525062 C16.6091957,23.041527 16.6091957,23.7882121 16.6918837,24.5768178 L15.9476909,24.8673567 C15.1621541,25.1994013 14.7900577,26.1125237 15.1208101,26.9011294 L15.6582826,28.2297225 C15.989035,29.0179132 16.898604,29.3914633 17.6841408,29.0598338 L18.4283336,28.7688798 C18.8831181,29.3914633 19.4619347,29.9310356 20.0407513,30.3880119 L19.751343,31.135112 C19.5859668,31.508247 19.5859668,31.9233027 19.751343,32.3383583 C19.9167192,32.7119084 20.2061275,33.0028624 20.5782239,33.1684696 L21.9012333,33.708457 C22.3146737,33.8740642 22.7281142,33.8740642 23.1415546,33.708457 L23.1415546,33.708457 Z" id="Path" fill="#EFD01B"></path>
                <path d="M21.0330084,31.7576955 C21.0330084,31.7157749 20.9916643,31.6742693 21.0330084,31.6331788 L21.7772011,29.8899451 L21.3224167,29.5579006 C20.4955358,29.0179132 19.8340311,28.3123186 19.2965585,27.5237129 L18.9658062,27.0671517 L17.2293563,27.8146669 C17.1466682,27.8557574 17.0226361,27.8146669 17.0226361,27.7312407 L16.4851635,26.4030626 C16.4438195,26.3200515 16.4851635,26.1955348 16.5678516,26.1955348 L18.3043015,25.4484346 L18.1802693,24.9092774 C17.9735491,23.9542343 17.9735491,22.9581008 18.1802693,22.0038879 L18.3043015,21.4639005 L16.5678516,20.7168003 C16.4851635,20.6752947 16.4438195,20.5922836 16.4851635,20.5092725 L17.0226361,19.1810944 C17.0639801,19.1395889 17.1053242,19.0984984 17.1053242,19.0984984 C17.1466682,19.0984984 17.1880123,19.0565777 17.2293563,19.0984984 L18.9658062,19.8451835 L19.2965585,19.3886223 C19.8340311,18.558511 20.5368798,17.8944219 21.3224167,17.3548496 L21.7772011,17.0232201 L21.0330084,15.2795714 C20.9916643,15.2380658 21.0330084,15.1965603 21.0330084,15.1554697 C21.0330084,15.1135491 21.0743524,15.0720436 21.1156964,15.0720436 L22.4387058,14.5328863 C22.5213939,14.4909657 22.6454261,14.5328863 22.6454261,14.6154824 L23.3896189,16.3587161 L23.9270914,16.2341994 C24.8780044,16.0266715 25.8702615,16.0266715 26.8211745,16.2341994 L27.3586471,16.3587161 L28.1028399,14.6154824 C28.1441839,14.5328863 28.226872,14.4909657 28.3095601,14.5328863 L29.6325695,15.0720436 C29.6739135,15.1135491 29.7152576,15.1554697 29.7152576,15.1554697 C29.7152576,15.1965603 29.7566016,15.2380658 29.7152576,15.2795714 L28.9710648,17.0232201 L29.4258493,17.3548496 C30.2527302,17.8944219 30.9142349,18.6000165 31.4517074,19.3886223 L31.7824598,19.8451835 L33.5189096,19.0984984 C33.5602537,19.0565777 33.6015977,19.0984984 33.6429418,19.0984984 C33.6842858,19.0984984 33.7256298,19.1395889 33.7256298,19.1810944 L34.2631024,20.5092725 C34.3044465,20.5511931 34.2631024,20.5922836 34.2631024,20.6337892 C34.2631024,20.6752947 34.2217584,20.7168003 34.1804143,20.7168003 L32.4439645,21.4639005 L32.5679966,22.0038879 C32.7747168,22.9581008 32.7747168,23.9542343 32.5679966,24.9092774 L32.4439645,25.4484346 L34.1804143,26.1955348 C34.2217584,26.2370404 34.2631024,26.2785459 34.2631024,26.2785459 C34.2631024,26.3200515 34.3044465,26.3619721 34.2631024,26.4030626 L33.7256298,27.7312407 L33.6429418,27.8146669 C33.6015977,27.8146669 33.5602537,27.8557574 33.5189096,27.8146669 L31.7824598,27.0671517 L31.4517074,27.5237129 C30.9142349,28.3538241 30.2113861,29.0179132 29.4258493,29.5579006 L28.9710648,29.8899451 L29.7152576,31.6331788 C29.7566016,31.6742693 29.7152576,31.7157749 29.7152576,31.7576955 C29.7152576,31.798786 29.6739135,31.8407066 29.6325695,31.8407066 L28.3095601,32.3802789 C28.268216,32.4213694 28.226872,32.3802789 28.185528,32.3802789 C28.1441839,32.3802789 28.1028399,32.3383583 28.1028399,32.2968528 L27.3586471,30.5536191 L26.8211745,30.6781357 C25.8702615,30.8856636 24.8780044,30.8856636 23.9270914,30.6781357 L23.3896189,30.5536191 L22.6454261,32.2968528 C22.604082,32.3383583 22.562738,32.3802789 22.562738,32.3802789 C22.5213939,32.3802789 22.4800499,32.4213694 22.4387058,32.3802789 L21.1156964,31.8407066 C21.0743524,31.8407066 21.0330084,31.798786 21.0330084,31.7576955 L21.0330084,31.7576955 Z" id="Path" fill="#EFD01B"></path>
                <path d="M27.1519269,27.607139 C28.268216,27.1501628 29.136441,26.2785459 29.6325695,25.1168052 C30.087354,23.9957399 30.087354,22.750573 29.6325695,21.6299227 C29.177785,20.5092725 28.3095601,19.6376556 27.1519269,19.1395889 C26.0356377,18.6834427 24.7953164,18.6834427 23.6790272,19.1395889 C21.3637607,20.0942168 20.2474715,22.7920785 21.1983845,25.1168052 C21.9425773,26.8596238 23.6376831,27.9387685 25.415477,27.9387685 C25.9942936,27.9387685 26.5731102,27.8146669 27.1519269,27.607139 L27.1519269,27.607139 Z" id="Path" fill="#000000"></path>
                <path d="M22.4800499,24.5768178 C21.8185452,22.9581008 22.562738,21.0903504 24.2164997,20.4262614 C24.5885961,20.2602391 25.0020366,20.177228 25.415477,20.177228 C25.8289175,20.177228 26.2423579,20.2602391 26.6144543,20.4262614 C27.3999911,20.7587209 28.0201518,21.3813044 28.3509041,22.1694951 C28.6816565,22.9581008 28.6816565,23.8297176 28.3509041,24.6183234 C28.0201518,25.4069291 27.3999911,26.0295125 26.6144543,26.3619721 C25.0020366,26.9845556 23.1415546,26.1955348 22.4800499,24.5768178 L22.4800499,24.5768178 Z" id="Path" fill="#FFFFFF"></path>
            </g>
        </g>
    </g>
</svg>