<?xml version="1.0" encoding="UTF-8"?>
<svg width="58px" height="58px" viewBox="0 0 58 58" version="1.1" xmlns="http://www.w3.org/2000/svg" xmlns:xlink="http://www.w3.org/1999/xlink">
    <!-- Generator: Sketch 53.2 (72643) - https://sketchapp.com -->
    <title>Apache </title>
    <desc>Created with Sketch.</desc>
    <defs>
        <polygon id="path-1" points="0 0.633820588 4.44885588 0.633820588 4.44885588 17.7881735 0 17.7881735"></polygon>
    </defs>
    <g id="The-Pantheon-Platform" stroke="none" stroke-width="1" fill="none" fill-rule="evenodd">
        <g id="Elements" transform="translate(-85.000000, -130.000000)">
            <g id="Apache-" transform="translate(85.000000, 130.000000)">
                <path d="M49.4042294,9.05149706 L21.2571706,39.4818794 L56.6312,23.1617029 C55.5846412,17.7625853 53.0224059,12.9076441 49.4042294,9.05149706" id="Fill-1" fill="#D84226"></path>
                <path d="M28.52005,-0.000170588235 C24.6204029,-0.000170588235 20.9049912,0.781976471 17.5171088,2.19359412 L13.7402853,34.0210941 L32.6133147,0.2958 C31.2759029,0.104741176 29.9103441,-0.000170588235 28.52005,-0.000170588235" id="Fill-3" fill="#D84226"></path>
                <path d="M56.9115618,24.9150088 L23.3926794,43.6728912 L54.8406206,39.9412735 C56.3315618,36.4740676 57.1606206,32.6545971 57.1606206,28.6406559 C57.1606206,27.37745 57.0702088,26.1355676 56.9115618,24.9150088" id="Fill-5" fill="#D84226"></path>
                <path d="M44.5535529,52.3753647 C48.2988176,49.8404235 51.4086412,46.4406 53.6049647,42.4650412 L24.1290235,48.3196294 L44.5535529,52.3753647 Z" id="Fill-7" fill="#D84226"></path>
                <path d="M34.3390706,0.592879412 L17.9310412,36.1562618 L48.3682471,8.00323235 C44.5513353,4.33217353 39.7236882,1.70426176 34.3390706,0.592879412" id="Fill-9" fill="#D84226"></path>
                <path d="M30.9139147,57.1739265 C34.08515,56.9112206 37.1096794,56.1358971 39.9039147,54.9238676 L23.3926794,52.9646618 L30.9139147,57.1739265 Z" id="Fill-11" fill="#D84226"></path>
                <g id="Group-15" transform="translate(0.000000, 16.232835)">
                    <mask id="mask-2" fill="white">
                        <use xlink:href="#path-1"></use>
                    </mask>
                    <g id="Clip-14"></g>
                    <path d="M2.41288529,0.633820588 C1.12494412,3.48520294 0.289914706,6.58223235 -8.52941176e-05,9.83876176 L4.44885588,17.7881735 L2.41288529,0.633820588 Z" id="Fill-13" fill="#D84226" mask="url(#mask-2)"></path>
                </g>
                <path d="M15.0353912,3.37116471 C10.9941559,5.53251765 7.53462647,8.63381176 4.94339118,12.3841941 L9.09465588,33.2846647 L15.0353912,3.37116471 Z" id="Fill-16" fill="#D84226"></path>
            </g>
        </g>
    </g>
</svg>