<?xml version="1.0" encoding="UTF-8"?>
<svg width="32px" height="34px" viewBox="0 0 32 34" version="1.1" xmlns="http://www.w3.org/2000/svg" xmlns:xlink="http://www.w3.org/1999/xlink">
    <!-- Generator: Sketch 53.2 (72643) - https://sketchapp.com -->
    <title>le-logo-lockonly</title>
    <desc>Created with Sketch.</desc>
    <g id="The-Pantheon-Platform" stroke="none" stroke-width="1" fill="none" fill-rule="evenodd">
        <g id="Elements" transform="translate(-193.000000, -257.000000)" fill-rule="nonzero">
            <g id="le-logo-lockonly" transform="translate(193.000000, 257.000000)">
                <path d="M22.9565217,18.0482935 L18.9670015,18.0482935 L18.9670015,15.9964087 C18.9670015,14.3577324 17.6358541,13.0242884 16,13.0242884 C14.3641459,13.0242884 13.0329985,14.3577324 13.0329985,15.9964087 L13.0329985,18.0482935 L9.04347826,18.0482935 L9.04347826,15.9964087 C9.04347826,12.1539766 12.1641856,9.02788529 16,9.02788529 C19.8358144,9.02788529 22.9565217,12.1539766 22.9565217,15.9964087 L22.9565217,18.0482935 L22.9565217,18.0482935 Z" id="Path" fill="#FFA400"></path>
                <path d="M24.3836106,18.0482935 L6.92073726,18.0482935 C6.1751841,18.0482935 5.56521739,18.644129 5.56521739,19.3722602 L5.56521739,31.9895655 C5.56521739,32.7177641 6.1751841,33.3135996 6.92073726,33.3135996 L24.3836106,33.3135996 C25.1291637,33.3135996 25.7391304,32.7177641 25.7391304,31.9895655 L25.7391304,19.3722602 C25.7391304,18.6440617 25.1291637,18.0482935 24.3836106,18.0482935 Z M16.5372426,26.3323597 L16.5372426,28.04197 C16.5372426,28.5191097 16.1409607,28.9062345 15.6523807,28.9062345 C15.1638007,28.9062345 14.7675188,28.5191771 14.7675188,28.04197 L14.7675188,26.332629 C14.223174,26.030941 13.8553605,25.4609587 13.8553605,24.8060782 C13.8553605,23.8368524 14.6598493,23.0510901 15.6521739,23.0510901 C16.6444986,23.0510901 17.4489874,23.8368524 17.4489874,24.8060782 C17.4489874,25.4609587 17.0812427,26.0308737 16.5372426,26.3323597 Z" id="Shape" fill="#003A70"></path>
                <path d="M5.66972151,15.9666608 L1.28680022,15.9666608 C0.576220938,15.9666608 0,15.3453102 0,14.5789057 C0,13.8125012 0.576149242,13.1911506 1.28680022,13.1911506 L5.66972151,13.1911506 C6.3803008,13.1911506 6.95652174,13.8125012 6.95652174,14.5789057 C6.95652174,15.3453102 6.3803008,15.9666608 5.66972151,15.9666608 Z" id="Path" fill="#FFA400"></path>
                <path d="M8.55285399,9.02788529 C8.28797658,9.02788529 8.02124966,8.94198692 7.80056252,8.76563204 L4.60644482,6.21301227 C4.10073374,5.80881484 4.02794199,5.08272321 4.44381934,4.59121502 C4.85956458,4.09983524 5.60643961,4.02870265 6.11248096,4.43302848 L9.30659866,6.98564824 C9.81230974,7.38984567 9.88510148,8.11593731 9.46922414,8.60744549 C9.23492983,8.88446454 8.89521299,9.02788529 8.55285399,9.02788529 Z" id="Path" fill="#FFA400"></path>
                <path d="M16,6.94625264 C15.2317129,6.94625264 14.6086957,6.37440799 14.6086957,5.6690665 L14.6086957,1.28466326 C14.6086957,0.579321779 15.2316354,0.00747712878 16,0.00747712878 C16.7682871,0.00747712878 17.3913043,0.579321779 17.3913043,1.28466326 L17.3913043,5.6690665 C17.3912268,6.37440799 16.7682871,6.94625264 16,6.94625264 Z" id="Path" fill="#FFA400"></path>
                <path d="M23.447146,9.02788529 C23.1045888,9.02788529 22.7650702,8.88453142 22.5307759,8.60738916 C22.1148985,8.11589018 22.1876903,7.38981213 22.6934013,6.98562227 L25.887519,4.43305027 C26.3937586,4.02866781 27.1406336,4.09986327 27.5561807,4.59123386 C27.972058,5.08273284 27.8992663,5.80881089 27.3935552,6.21300075 L24.1994375,8.76557275 C23.9786843,8.94192433 23.7120234,9.02788529 23.447146,9.02788529 Z" id="Path" fill="#FFA400"></path>
                <path d="M30.7208592,15.9666608 L26.322619,15.9666608 C25.6162693,15.9666608 25.0434783,15.3453102 25.0434783,14.5789057 C25.0434783,13.8125012 25.6161981,13.1911506 26.322619,13.1911506 L30.7208592,13.1911506 C31.4272089,13.1911506 32,13.8125012 32,14.5789057 C31.9999287,15.3453102 31.4272089,15.9666608 30.7208592,15.9666608 Z" id="Path" fill="#FFA400"></path>
            </g>
        </g>
    </g>
</svg>