<?xml version="1.0" encoding="UTF-8"?>
<svg width="27px" height="27px" viewBox="0 0 27 27" version="1.1" xmlns="http://www.w3.org/2000/svg" xmlns:xlink="http://www.w3.org/1999/xlink">
    <!-- Generator: Sketch 53.2 (72643) - https://sketchapp.com -->
    <title>Wordpress grey</title>
    <desc>Created with Sketch.</desc>
    <g id="The-Pantheon-Platform" stroke="none" stroke-width="1" fill="none" fill-rule="evenodd">
        <g id="Elements" transform="translate(-88.000000, -264.000000)">
            <g id="Wordpress-grey" transform="translate(88.000000, 264.000000)">
                <g id="icons8-wordpress-copy">
                    <circle id="Oval" fill="#FFFFFF" fill-rule="nonzero" cx="13.5" cy="13.5" r="13.46625"></circle>
                    <path d="M2.700675,13.5 C2.700675,17.7768 5.184675,21.46905 8.787825,23.22 L3.634875,9.1044 C3.03615,10.448325 2.700675,11.9313 2.700675,13.5 Z M20.7927,12.95595 C20.7927,11.621475 20.075175,10.6947 19.66545,9.97785 C19.116675,9.080775 18.60165,8.332875 18.60165,7.44525 C18.60165,6.456375 19.594575,5.52825 20.654325,5.52825 C20.70225,5.52825 20.74545,5.5323 20.793375,5.53365 C18.873675,3.7692 16.3134,2.7 13.500675,2.7 C9.8631,2.7 6.6474,4.49955 4.690575,7.255575 C4.844475,7.305525 4.8978,7.2819 5.103,7.2819 C6.229575,7.2819 7.9812,7.1469 7.9812,7.1469 C8.5617,7.108425 8.632575,7.965 8.048025,8.0352 C8.048025,8.0352 7.464825,8.106075 6.814125,8.1378 L10.81755,20.13795 L13.18005,13.049775 L11.423025,8.157375 C10.84185,8.126325 10.2897,8.054775 10.2897,8.054775 C9.70785,8.016975 9.77535,7.12665 10.35585,7.166475 C10.35585,7.166475 12.14325,7.301475 13.202325,7.301475 C14.33295,7.301475 16.080525,7.166475 16.080525,7.166475 C16.6617,7.128 16.7319,7.984575 16.150725,8.054775 C16.150725,8.054775 15.563475,8.12565 14.914125,8.157375 L18.89055,20.044125 L19.969875,16.449075 C20.519325,15.045075 20.7927,13.884075 20.7927,12.95595 Z M13.689675,14.4423 L10.449675,23.8599 C11.418975,24.14745 12.440925,24.3 13.500675,24.3 C14.75685,24.3 15.96375,24.0813 17.088975,23.687775 C17.061975,23.63985 17.0316,23.59125 17.009325,23.539275 L13.689675,14.4423 Z M22.979025,8.31465 C23.02695,8.6589 23.051925,9.029475 23.051925,9.425025 C23.051925,10.523925 22.845375,11.75445 22.2291,13.2975 L18.931725,22.838625 C22.143375,20.967525 24.3,17.48385 24.3,13.5 C24.3,11.622825 23.820075,9.8577 22.979025,8.31465 Z" id="Shape" fill="#85919A" fill-rule="nonzero"></path>
                    <path d="M0,13.5 C0,20.9412 6.05475,27 13.499325,27 C20.94525,27 27,20.9412 27,13.5 C27,6.0588 20.94525,0 13.5,0 C6.05475,0 0,6.0588 0,13.5 Z M1.346625,13.5 C1.346625,6.8013 6.796575,1.350675 13.499325,1.350675 C20.202075,1.350675 25.653375,6.8013 25.653375,13.5 C25.653375,20.1987 20.202075,25.650675 13.5,25.650675 C6.7986,25.650675 1.346625,20.1987 1.346625,13.5 Z" id="Shape" fill="#85919A" fill-rule="nonzero"></path>
                </g>
            </g>
        </g>
    </g>
</svg>