<?xml version="1.0" encoding="UTF-8"?>
<svg width="50px" height="43px" viewBox="0 0 50 43" version="1.1" xmlns="http://www.w3.org/2000/svg" xmlns:xlink="http://www.w3.org/1999/xlink">
    <!-- Generator: Sketch 53.2 (72643) - https://sketchapp.com -->
    <title>iconfinder_Untitled-2_202809</title>
    <desc>Created with Sketch.</desc>
    <g id="The-Pantheon-Platform" stroke="none" stroke-width="1" fill="none" fill-rule="evenodd">
        <g id="Elements" transform="translate(-874.000000, -138.000000)" fill-rule="nonzero">
            <g id="iconfinder_Untitled-2_202809" transform="translate(874.000000, 138.000000)">
                <path d="M48.0283964,33.0161064 C45.36257,34.4057773 31.552416,40.0838585 28.612395,41.6163866 C25.6721289,43.150105 24.0390056,43.1351541 21.7164216,42.0247899 C19.3938375,40.9143908 4.69754902,34.9781863 2.05021008,33.712395 C0.72692577,33.0803571 0.031337535,32.5463585 0.031337535,32.0422269 L0.031337535,26.9927521 C0.031337535,26.9927521 19.1639706,22.8276261 22.2529412,21.7193978 C25.3418067,20.6113095 26.4131303,20.5713235 29.0417017,21.5343137 C31.6706232,22.4973039 47.3877801,25.3329132 49.9856092,26.2843838 C49.9856092,26.2843838 49.9844538,30.7942227 49.9844538,31.2622199 C49.9848039,31.7617297 49.3854342,32.3095238 48.0283964,33.0161064 Z" id="Path" fill="#A42122"></path>
                <path d="M48.0283964,27.9654762 C45.36257,29.3545868 31.552416,35.0332633 28.612395,36.5657563 C25.6721289,38.0988796 24.0390056,38.0839286 21.7164216,36.9735294 C19.3935574,35.8637955 4.69758403,29.9264006 2.0502451,28.6617297 C-0.597128852,27.3964986 -0.652591036,26.5252801 1.9480042,25.5072479 C4.54831933,24.4886204 19.1640056,18.7541667 22.2532563,17.6459034 C25.3418067,16.5382703 26.4134804,16.4976541 29.0420168,17.4609244 C31.6708333,18.4237745 45.3984244,23.8880952 47.9963235,24.8396008 C50.5945028,25.7917017 50.6942577,26.5757703 48.0283964,27.9654762 Z" id="Path" fill="#D82F27"></path>
                <path d="M48.0283964,24.7822829 C45.36257,26.1719538 31.552416,31.85007 28.612395,33.3831933 C25.6721289,34.9157213 24.0390056,34.9008053 21.7164216,33.7903711 C19.3935224,32.6806022 4.69754902,26.7438025 2.05021008,25.4785714 C0.72692577,24.8459734 0.031337535,24.3131303 0.031337535,23.8089636 L0.031337535,18.7586134 C0.031337535,18.7586134 19.1639706,14.5936975 22.2529412,13.4854342 C25.3418067,12.377486 26.4131303,12.3371849 29.0417017,13.3001751 C31.6706232,14.2630252 47.3877801,17.0983543 49.9856092,18.05 C49.9856092,18.05 49.9844538,22.5597689 49.9844538,23.0283964 C49.9848039,23.5273459 49.3854342,24.07507 48.0283964,24.7822829 Z" id="Path" fill="#A42122"></path>
                <path d="M48.0283964,19.7311975 C45.36257,21.1207283 31.552416,26.7988445 28.612395,28.3319328 C25.6721289,29.865021 24.0390056,29.8495448 21.7164216,28.7397059 C19.3935574,27.629937 4.69758403,21.692402 2.0502451,20.427486 C-0.597128852,19.162395 -0.652591036,18.2914566 1.9480042,17.2726541 C4.54831933,16.2546569 19.1640056,10.520063 22.2532563,9.41211485 C25.3418067,8.30416667 26.4134804,8.26386555 29.0420168,9.22685574 C31.6708333,10.1896709 45.3984244,15.6534314 47.9963235,16.6052521 C50.5945028,17.5573179 50.6942577,18.3416317 48.0283964,19.7311975 Z" id="Path" fill="#D82F27"></path>
                <path d="M48.0283964,16.242612 C45.36257,17.6321429 31.552416,23.3105742 28.612395,24.8436275 C25.6721289,26.3767157 24.0390056,26.3612395 21.7164216,25.2514356 C19.3935574,24.1415966 4.69758403,18.2041317 2.0502451,16.9391807 C0.726960784,16.3065826 0.031372549,15.7732843 0.031372549,15.2694678 L0.031372549,10.2193978 C0.031372549,10.2193978 19.1640056,6.05444678 22.2529762,4.9464986 C25.3418417,3.83823529 26.4131653,3.7982493 29.0417367,4.76120448 C31.6706583,5.72405462 47.3878151,8.55938375 49.9856443,9.51102941 C49.9856443,9.51102941 49.9844888,14.0208333 49.9844888,14.4891106 C49.9848039,14.9878151 49.3854342,15.5353992 48.0283964,16.242612 Z" id="Path" fill="#A42122"></path>
                <path d="M48.0283964,11.1916667 C45.36257,12.5811975 31.552416,18.2595938 28.612395,19.792577 C25.6721289,21.3252451 24.0390056,21.3101541 21.7164216,20.2002451 C19.3938375,19.090091 4.69754902,13.1533613 2.05021008,11.8882703 C-0.597163866,10.6231443 -0.65262605,9.75192577 1.94796919,8.73343838 C4.54831933,7.71495098 19.1640056,1.98109244 22.2532563,0.872864146 C25.3418067,-0.23539916 26.4134804,-0.275385154 29.0420168,0.687745098 C31.6708333,1.65073529 45.3984244,7.1144958 47.9963235,8.06628151 C50.5945028,9.01764706 50.6942577,9.80238095 48.0283964,11.1916667 Z" id="Path" fill="#D82F27"></path>
                <polygon id="Path" fill="#FFFFFF" points="31.5544468 6.3287465 27.2258754 6.77794118 26.2566527 9.10952381 24.6915266 6.50780812 19.6933824 6.05857843 23.4228291 4.71358543 22.3040266 2.64912465 25.7955182 4.01460084 29.0876401 2.93686975 28.1977591 5.07177871"></polygon>
                <polygon id="Path" fill="#FFFFFF" points="25.9982143 17.6403361 17.9196779 14.2896709 29.4957283 12.5131303"></polygon>
                <ellipse id="Oval" fill="#FFFFFF" cx="14.7981793" cy="10.0228992" rx="6.18711485" ry="2.39828431"></ellipse>
                <polygon id="Path" fill="#791514" points="36.669888 6.96593137 43.5209034 9.67345938 36.6756303 12.3780462"></polygon>
                <polygon id="Path" fill="#AD2524" points="29.0905112 9.96411064 36.669888 6.96593137 36.6756303 12.3780462 35.932598 12.6686975"></polygon>
            </g>
        </g>
    </g>
</svg>