<?xml version="1.0" encoding="UTF-8"?>
<svg width="52px" height="52px" viewBox="0 0 52 52" version="1.1" xmlns="http://www.w3.org/2000/svg" xmlns:xlink="http://www.w3.org/1999/xlink">
    <!-- Generator: Sketch 53.2 (72643) - https://sketchapp.com -->
    <title>Git</title>
    <desc>Created with Sketch.</desc>
    <defs>
        <polygon id="path-1" points="0.000169565217 -0.000197826087 51.9366957 -0.000197826087 51.9366957 51.9357913 0.000169565217 51.9357913"></polygon>
    </defs>
    <g id="The-Pantheon-Platform" stroke="none" stroke-width="1" fill="none" fill-rule="evenodd">
        <g id="Elements" transform="translate(-537.000000, -133.000000)">
            <g id="Git" transform="translate(537.000000, 133.000000)">
                <mask id="mask-2" fill="white">
                    <use xlink:href="#path-1"></use>
                </mask>
                <g id="Clip-2"></g>
                <path d="M50.9570609,23.6548565 L28.2811043,0.979465217 C26.9754522,-0.326752174 24.8575826,-0.326752174 23.5508,0.979465217 L18.8425391,5.68885652 L24.8151913,11.6620739 C26.2033652,11.1929435 27.7950174,11.5077696 28.901713,12.6139 C30.0140609,13.7273783 30.3260609,15.3325957 29.8450609,16.7258565 L35.6023652,22.4825957 C36.9956261,22.0021609 38.6019739,22.3124652 39.7143217,23.4270739 C41.2686696,24.9808565 41.2686696,27.5000304 39.7143217,29.0549435 C38.1588435,30.6104217 35.6402348,30.6104217 34.0841913,29.0549435 C32.9153217,27.8849435 32.6259304,26.1666826 33.2188435,24.7265087 L27.8492783,19.3575087 L27.8492783,33.4862478 C28.2279739,33.6739 28.5857565,33.9237261 28.901713,34.2385522 C30.4560609,35.7929 30.4560609,38.3115087 28.901713,39.8681174 C27.3473652,41.4219 24.8270609,41.4219 23.2732783,39.8681174 C21.7189304,38.3115087 21.7189304,35.7929 23.2732783,34.2385522 C23.6576261,33.8547696 24.1024522,33.5642478 24.5772348,33.369813 L24.5772348,19.1105087 C24.1024522,18.9166391 23.6587565,18.6283783 23.2732783,18.2423348 C22.0959304,17.0655522 21.8127565,15.3371174 22.4169739,13.8912913 L16.5285391,8.0022913 L0.979408696,23.5497261 C-0.326243478,24.8570739 -0.326243478,26.9749435 0.979408696,28.2811609 L23.6564957,50.9565522 C24.9621478,52.2622043 27.0794522,52.2622043 28.3868,50.9565522 L50.9570609,28.3862913 C52.2638435,27.0800739 52.2638435,24.9610739 50.9570609,23.6548565" id="Fill-1" fill="#EF5133" mask="url(#mask-2)"></path>
            </g>
        </g>
    </g>
</svg>