<?xml version="1.0" encoding="UTF-8"?>
<svg width="24px" height="27px" viewBox="0 0 24 27" version="1.1" xmlns="http://www.w3.org/2000/svg" xmlns:xlink="http://www.w3.org/1999/xlink">
    <!-- Generator: Sketch 53.2 (72643) - https://sketchapp.com -->
    <title>Drupal grey</title>
    <desc>Created with Sketch.</desc>
    <g id="The-Pantheon-Platform" stroke="none" stroke-width="1" fill="none" fill-rule="evenodd">
        <g id="Elements" transform="translate(-142.000000, -264.000000)">
            <g id="Drupal-grey" transform="translate(142.000000, 264.000000)">
                <g id="icons8-drupal-copy" transform="translate(-0.000000, 0.000000)">
                    <path d="M11.7,27 C5.23421053,27 0,21.8454545 0,15.5863636 C0,10.6159091 3.26368421,6.19772727 8.12842105,4.725 C9.17526316,4.35681818 9.97578947,2.08636364 10.1605263,1.41136364 L10.4684211,0 L11.2689474,1.16590909 C11.9463158,2.20909091 13.2394737,4.23409091 14.1015789,4.35681818 C19.4589474,5.46136364 23.4,10.1863636 23.4,15.5863636 C23.4,21.8454545 18.1657895,27 11.7,27 Z" id="Path" fill="#85919A" fill-rule="nonzero"></path>
                    <path d="M15.0868421,20.3727273 C15.4563158,20.3727273 15.8873684,20.3727273 16.1952632,20.5568182 C16.5031579,20.7409091 16.6878947,21.1704545 16.7494737,21.4159091 C16.8726316,21.6613636 16.7494737,21.7840909 16.5647368,21.9068182 C16.38,22.0295455 16.38,21.9681818 16.1952632,21.6613636 C16.0105263,21.3545455 15.8873684,21.0477273 15.0252632,21.0477273 C14.1631579,21.0477273 13.9168421,21.3545455 13.4857895,21.6613636 C13.0547368,21.9681818 12.9315789,22.0909091 12.8084211,21.9068182 C12.6852632,21.7227273 12.6852632,21.5386364 12.9931579,21.2931818 C13.2394737,21.0477273 13.6705263,20.6795455 14.1015789,20.4954545 C14.4710526,20.3113636 14.7173684,20.3727273 15.0868421,20.3727273 L15.0868421,20.3727273 Z M11.0226316,23.0727273 C11.5152632,23.4409091 12.2542105,23.7477273 13.7936842,23.7477273 C15.3331579,23.7477273 16.4415789,23.3181818 16.9342105,22.95 C17.1805263,22.7659091 17.2421053,22.95 17.3036842,23.0113636 C17.3036842,23.1340909 17.3652632,23.2568182 17.1805263,23.4409091 C17.0573684,23.5636364 15.9489474,24.3 14.5942105,24.4227273 C13.3010526,24.5454545 11.5152632,24.6068182 10.4068421,23.6863636 C10.2221053,23.5022727 10.2836842,23.2568182 10.4068421,23.1954545 C10.53,23.0727273 10.6531579,23.0113636 10.7763158,23.0113636 C10.8994737,23.0113636 10.9610526,23.0113636 11.0226316,23.0727273 L11.0226316,23.0727273 Z M5.54210526,18.1636364 C5.54210526,16.3840909 7.32789474,14.7272727 9.60631579,14.7272727 C12.4389474,14.7272727 14.4710526,17.3659091 15.8873684,17.3045455 C17.1189474,17.3045455 19.4589474,15.0340909 20.6289474,15.0340909 C21.8605263,15.0340909 22.1684211,16.2 22.1684211,16.9363636 C22.1684211,17.6113636 21.9221053,18.9 21.3063158,19.6977273 C20.6905263,20.4954545 20.3826316,20.8022727 19.6436842,20.7409091 C18.7815789,20.6795455 16.9957895,18.1636364 15.8873684,18.1022727 C14.4710526,18.0409091 11.3921053,20.8636364 8.99052632,20.8636364 C7.51263158,20.8636364 7.08157895,20.6795455 6.58894737,20.3727273 C5.91157895,19.8818182 5.54210526,19.1454545 5.54210526,18.1636364 L5.54210526,18.1636364 Z" id="Shape" fill="#FFFFFF" fill-rule="nonzero"></path>
                </g>
            </g>
        </g>
    </g>
</svg>