<?xml version="1.0" encoding="UTF-8"?>
<svg width="47px" height="47px" viewBox="0 0 47 47" version="1.1" xmlns="http://www.w3.org/2000/svg" xmlns:xlink="http://www.w3.org/1999/xlink">
    <!-- Generator: Sketch 53.2 (72643) - https://sketchapp.com -->
    <title>icons8-internet (1)</title>
    <desc>Created with Sketch.</desc>
    <g id="Symbols" stroke="none" stroke-width="1" fill="none" fill-rule="evenodd">
        <g id="Icon-Traffic" transform="translate(-17.000000, -17.000000)">
            <g id="icons8-internet-(1)" transform="translate(18.000000, 17.000000)">
                <polygon id="Path" stroke="#000000" stroke-width="2" fill="#EFD01B" stroke-linecap="round" stroke-linejoin="round" points="38.875 37.125 45 37.125 31 24 31 43.25 35.03 39.22 38.139 46 42 44.229 38.767 37.179"></polygon>
                <path d="M21,43 C13.82,43 8,33.598 8,22 C8,10.402 13.82,1 21,1" id="Path" stroke="#000000" stroke-width="2"></path>
                <path d="M21,1 L21,43" id="Path" stroke="#000000" stroke-width="2"></path>
                <path d="M27,22 L0,22" id="Path" stroke="#000000" stroke-width="2"></path>
                <path d="M39,11 L3,11" id="Path" stroke="#000000" stroke-width="2"></path>
                <path d="M27,33 L3,33" id="Path" stroke="#000000" stroke-width="2"></path>
                <path d="M21,43 C9.402,43 0,33.598 0,22 C0,10.402 9.402,1 21,1 C32.598,1 42,10.402 42,22" id="Path" stroke="#000000" stroke-width="2"></path>
                <g id="Group" transform="translate(21.000000, 0.000000)" fill="#000000" fill-rule="nonzero">
                    <path d="M20.849,28.997 C21.6,26.759 22,24.405 22,22 L20,22 C20,23.872 19.732,25.71 19.23,27.478 L20.849,28.997 Z" id="Path"></path>
                    <path d="M6,39.294 C4.233,41.004 2.187,42 0,42 L0,44 C2.057,44 4.071,43.704 6,43.157 L6,39.294 Z" id="Path"></path>
                    <path d="M11.959,20.662 L13.988,22.564 C13.991,22.376 14,22.19 14,22 C14,9.869 7.72,0 0,0 L0,2 C6.346,2 11.543,10.259 11.959,20.662 Z" id="Path"></path>
                </g>
                <polygon id="Path" fill="#000000" fill-rule="nonzero" points="35.453 23 42 23 42 21 34 21 34 21.638"></polygon>
            </g>
        </g>
    </g>
</svg>