<?xml version="1.0" encoding="UTF-8"?>
<svg width="60px" height="49px" viewBox="0 0 60 49" version="1.1" xmlns="http://www.w3.org/2000/svg" xmlns:xlink="http://www.w3.org/1999/xlink">
    <!-- Generator: Sketch 53.2 (72643) - https://sketchapp.com -->
    <title>NewRelic</title>
    <desc>Created with Sketch.</desc>
    <g id="The-Pantheon-Platform" stroke="none" stroke-width="1" fill="none" fill-rule="evenodd">
        <g id="Elements" transform="translate(-645.000000, -135.000000)" fill-rule="nonzero">
            <g id="NewRelic" transform="translate(645.000000, 135.000000)">
                <path d="M59.2047547,17.7612691 C56.4059742,4.90151298 40.9852425,-2.66068214 24.7559742,0.866147126 C8.5267059,4.39297639 -2.35744044,17.6807813 0.437681511,30.5368788 C3.23280346,43.3929764 18.6571937,50.9624886 34.8828035,47.4320008 C51.1084132,43.901513 61.9998766,30.6320008 59.2047547,17.7612691 Z M29.8230474,36.0027325 C23.2764525,36.0027325 17.9693888,30.6956688 17.9693888,24.149074 C17.9693888,17.6024791 23.2764525,12.2954154 29.8230474,12.2954154 C36.3696422,12.2954154 41.6767059,17.6024791 41.6767059,24.149074 C41.6767059,27.2928597 40.4278419,30.3078841 38.2048497,32.5308763 C35.9818575,34.7538685 32.9668331,36.0027325 29.8230474,36.0027325 Z" id="Shape" fill="#0097A0"></path>
                <path d="M32.4425596,7.553952 C23.043419,7.55597246 15.4253592,15.1767621 15.4267061,24.5759027 C15.428053,33.9750433 23.0482966,41.5936493 32.4474373,41.592976 C41.8465781,41.5923026 49.4657301,33.9726049 49.4657303,24.5734642 C49.4657304,20.058975 47.6721062,15.7294409 44.4795372,12.537558 C41.2869682,9.34567517 36.9570487,7.55298156 32.4425596,7.553952 Z M29.8193888,34.5027325 C24.1012211,34.5027325 19.4657303,29.8672417 19.4657303,24.149074 C19.4657303,18.4309062 24.1012211,13.7954154 29.8193888,13.7954154 C35.5375565,13.7954154 40.1730474,18.4309062 40.1730474,24.149074 C40.1730477,29.8658132 35.5397863,34.5007124 29.8230474,34.5027325 L29.8193888,34.5027325 Z" id="Shape" fill="#5BC6CC"></path>
            </g>
        </g>
    </g>
</svg>