<?xml version="1.0" encoding="UTF-8"?>
<svg width="20px" height="47px" viewBox="0 0 20 47" version="1.1" xmlns="http://www.w3.org/2000/svg" xmlns:xlink="http://www.w3.org/1999/xlink">
    <!-- Generator: Sketch 53.2 (72643) - https://sketchapp.com -->
    <title>Pantheon Fist</title>
    <desc>Created with Sketch.</desc>
    <g id="Symbols" stroke="none" stroke-width="1" fill="none" fill-rule="evenodd">
        <g id="Header" transform="translate(-36.000000, -6.000000)">
            <g id="Pantheon-Fist" transform="translate(36.000000, 6.000000)">
                <polygon id="Fill-2" fill="#EFD01B" points="6.9363 9.9218 1.2983 9.9218 3.0233 14.1628 13.9643 14.1628 2.8923 0.4058"></polygon>
                <polygon id="Fill-4" fill="#EFD01B" points="6.9498 24.0248 10.6788 32.8378 4.1458 32.8378 15.4278 46.6288 11.3698 37.0788 17.0048 37.0788 15.2618 32.8378 12.6518 32.8378 8.9188 24.0248"></polygon>
                <path d="M19.4854,27.209 C19.4894,27.209 19.4954,27.207 19.5074,27.196 C19.5394,27.171 19.5744,27.118 19.6104,27.031 C19.7134,26.775 19.7754,26.315 19.7754,25.617 C19.7754,24.92 19.7124,24.46 19.6084,24.203 C19.5724,24.116 19.5374,24.063 19.5054,24.037 C19.4924,24.026 19.4854,24.024 19.4824,24.024 L10.1494,24.024 L11.4954,27.209 L19.4854,27.209 Z" id="Fill-5" fill="#000000"></path>
                <path d="M18.7852,31.4385 C18.7882,31.4385 18.7942,31.4365 18.8062,31.4255 C18.8382,31.4005 18.8732,31.3475 18.9092,31.2615 C19.0122,31.0045 19.0742,30.5445 19.0742,29.8475 C19.0742,29.1505 19.0122,28.6905 18.9062,28.4335 C18.8712,28.3475 18.8352,28.2945 18.8032,28.2685 C18.7902,28.2575 18.7842,28.2555 18.7812,28.2555 L11.9362,28.2555 L13.2852,31.4385 L18.7852,31.4385 Z" id="Fill-10" fill="#000000"></path>
                <path d="M18.7812,18.748 C18.7842,18.748 18.7902,18.746 18.8032,18.735 C18.8352,18.709 18.8702,18.656 18.9052,18.57 C19.0092,18.313 19.0712,17.852 19.0712,17.154 C19.0712,16.456 19.0092,15.996 18.9052,15.74 C18.8702,15.653 18.8352,15.602 18.8032,15.575 C18.7902,15.564 18.7842,15.562 18.7812,15.562 L11.1772,15.562 L12.5232,18.748 L18.7812,18.748 Z" id="Fill-15" fill="#000000"></path>
                <path d="M11.177,15.563 L12.523,18.748 L18.781,18.748 C18.785,18.748 18.79,18.746 18.803,18.735 L18.803,18.735 C18.835,18.709 18.87,18.656 18.905,18.571 L18.905,18.571 C19.009,18.313 19.071,17.853 19.071,17.154 L19.071,17.154 C19.071,16.456 19.009,15.996 18.905,15.74 L18.905,15.74 C18.87,15.654 18.835,15.602 18.804,15.576 L18.804,15.576 C18.79,15.565 18.785,15.563 18.781,15.563 L18.781,15.563 L11.177,15.563 Z" id="Clip-18"></path>
                <path d="M19.4819,22.9775 C19.4859,22.9775 19.4919,22.9755 19.5039,22.9645 C19.5359,22.9385 19.5709,22.8865 19.6069,22.7995 C19.7099,22.5425 19.7719,22.0825 19.7719,21.3835 C19.7719,20.6855 19.7099,20.2255 19.6059,19.9695 C19.5709,19.8835 19.5359,19.8315 19.5039,19.8055 C19.4909,19.7945 19.4849,19.7925 19.4819,19.7925 L12.9669,19.7925 L14.3139,22.9775 L19.4819,22.9775 Z" id="Fill-20" fill="#000000"></path>
                <path d="M6.686,18.7461 L7.915,18.7461 L9.704,22.9771 L13.133,22.9771 L9.993,15.5621 L1.913,15.5621 C1.176,15.5621 1.036,15.6421 0.813,16.3601 C0.511,17.3281 0.441,18.8821 0.441,23.5001 C0.441,28.1001 0.512,29.6711 0.814,30.6411 C1.036,31.3571 1.176,31.4371 1.913,31.4371 L8.848,31.4371 L5.285,22.9741 L8.474,22.9741 L6.686,18.7461 Z" id="Fill-25" fill="#000000"></path>
            </g>
        </g>
    </g>
</svg>